{"glyphs":{"0":{"ha":575,"x_min":0,"x_max":0,"o":"m 266 -7 b 508 358 423 14 485 229 b 461 909 539 532 549 749 b 454 918 459 912 457 915 b 154 840 358 1043 217 953 b 41 318 69 688 39 491 b 266 -7 42 189 90 -31 z m 150 566 b 223 789 166 641 187 721 b 387 866 250 841 330 948 b 434 435 457 742 450 572 b 199 94 424 351 348 -13 b 126 307 134 140 127 234 b 150 566 124 394 132 481 z "},"1":{"ha":296,"x_min":0,"x_max":0,"o":"m 78 67 b 160 44 71 13 153 -10 b 289 899 185 214 270 784 b 247 952 294 930 270 950 b 219 947 237 954 227 953 b 91 853 176 916 133 884 b 75 795 72 839 63 816 b 134 779 86 776 115 766 b 181 814 149 791 165 803 b 189 809 185 817 190 814 b 78 67 150 562 114 314 z "},"2":{"ha":532,"x_min":0,"x_max":0,"o":"m 328 317 b 508 680 408 427 487 544 b 391 959 525 786 502 914 b 95 825 269 1009 165 913 b 155 765 61 783 121 722 b 403 845 209 832 323 953 b 370 537 466 759 414 621 b 1 96 279 365 147 223 b 25 18 -28 75 -20 18 b 366 15 83 17 310 16 b 366 100 421 15 421 100 l 162 102 b 155 121 152 102 147 114 b 328 317 217 182 276 246 z "},"3":{"ha":610,"x_min":0,"x_max":0,"o":"m 507 154 b 510 460 555 244 566 370 b 412 541 486 500 451 526 b 409 557 405 543 404 552 b 496 853 496 626 546 734 b 299 971 464 931 384 983 b 108 806 208 958 142 888 b 190 784 87 756 169 734 b 305 886 210 831 253 877 b 427 767 377 900 427 833 b 231 566 427 657 338 580 b 191 522 206 562 193 542 b 191 521 191 521 191 521 b 198 494 191 511 193 502 b 245 471 206 479 223 468 b 449 392 322 484 416 476 b 423 180 476 325 461 240 b 76 178 344 51 153 42 b 3 135 49 225 -24 183 b 507 154 116 -64 402 -42 z "},"4":{"ha":647,"x_min":0,"x_max":0,"o":"m 619 914 b 534 914 625 968 540 968 b 531 890 533 906 532 898 b 524 888 531 886 526 885 b 448 891 510 912 469 922 b 328 712 408 832 368 772 b 76 337 244 587 160 462 b 112 273 57 310 82 273 l 432 273 b 450 253 443 273 451 264 b 424 47 441 185 433 116 b 509 47 418 -8 503 -7 b 535 255 518 116 526 185 b 553 276 536 265 544 272 b 561 352 585 287 588 335 b 551 377 553 357 550 367 b 619 914 574 556 598 735 z m 467 387 b 434 358 465 371 451 358 l 209 358 b 201 372 202 358 197 366 b 516 837 303 523 413 685 b 524 834 519 841 525 839 b 467 387 506 685 487 536 z "},"5":{"ha":614,"x_min":0,"x_max":0,"o":"m 539 952 b 209 951 487 952 211 951 b 174 920 193 951 177 942 b 145 731 164 857 155 794 b 117 519 138 661 118 590 b 164 485 121 498 138 478 b 465 337 291 524 459 499 b 334 97 469 238 427 141 b 80 178 240 53 132 87 b 7 135 53 225 -20 183 b 316 1 68 26 194 -30 b 548 278 445 34 534 148 b 437 546 560 383 533 490 b 237 585 377 581 306 592 b 213 611 222 584 210 597 b 248 847 224 690 236 769 b 271 866 250 858 259 866 b 539 867 360 866 450 867 b 539 952 594 867 594 952 z "},"6":{"ha":614,"x_min":0,"x_max":0,"o":"m 352 8 b 541 460 510 60 591 315 b 342 624 510 550 437 614 b 169 575 272 631 216 614 b 152 585 161 569 150 576 b 168 641 157 605 163 623 b 269 835 190 708 221 781 b 463 795 330 903 458 913 b 548 795 466 740 551 740 b 409 970 545 878 494 951 b 198 882 326 989 249 945 b 43 315 74 731 32 506 b 352 8 53 163 167 -54 z m 127 447 b 139 456 128 453 134 457 b 187 473 156 451 175 455 b 386 525 233 536 312 563 b 466 316 461 487 480 393 b 368 114 454 247 421 163 b 176 162 301 54 218 94 b 127 447 126 241 117 346 z "},"7":{"ha":568,"x_min":0,"x_max":0,"o":"m 133 55 b 218 55 127 1 212 1 b 487 872 247 345 339 622 b 459 946 509 898 502 946 l 110 946 b 110 861 56 946 56 861 l 357 861 b 371 838 369 861 376 848 b 133 55 240 595 161 331 z "},"8":{"ha":593,"x_min":0,"x_max":0,"o":"m 396 537 b 539 829 495 602 575 704 b 212 907 498 972 314 1014 b 223 567 121 813 155 667 b 218 546 227 560 225 550 b 17 198 101 470 3 344 b 343 18 33 34 198 -39 b 511 363 478 71 561 222 b 395 514 489 424 443 470 b 396 537 388 520 388 532 z m 435 322 b 314 98 460 227 402 134 b 105 269 191 47 78 136 b 274 480 124 360 196 432 b 304 478 283 486 296 485 b 435 322 357 433 416 392 z m 335 598 b 303 604 324 592 311 594 b 244 775 264 650 237 703 b 462 783 255 905 449 922 b 335 598 470 699 405 638 z "},"9":{"ha":596,"x_min":0,"x_max":0,"o":"m 326 964 b 61 572 155 938 57 730 b 181 366 63 487 100 402 b 423 392 263 330 353 344 b 440 380 431 398 443 390 b 424 321 435 360 430 340 b 314 114 404 250 376 160 b 116 190 239 59 123 86 b 31 190 113 244 27 245 b 399 78 43 -5 276 -57 b 555 616 522 212 548 442 b 516 855 558 697 559 783 b 326 964 475 923 409 976 z m 467 518 b 453 509 466 511 459 507 b 414 497 440 513 426 510 b 170 484 355 431 229 394 b 163 681 132 541 144 620 b 294 865 185 754 224 830 b 464 757 379 907 446 839 b 467 518 481 684 479 600 z "},"\u0000":{"ha":0,"x_min":0,"x_max":0,"o":""},"\n":{"ha":0,"x_min":0,"x_max":0,"o":""},"\r":{"ha":0,"x_min":0,"x_max":0,"o":""}," ":{"ha":335,"x_min":0,"x_max":0,"o":""},"!":{"ha":218,"x_min":0,"x_max":0,"o":"m 127 900 b 41 294 129 922 55 394 b 123 272 33 241 115 218 b 212 900 152 481 184 690 b 127 900 219 954 134 953 z m 62 122 b 29 117 51 124 38 124 b 9 92 20 112 11 103 b 4 50 7 78 5 64 b 16 20 3 40 9 27 b 46 8 23 13 36 7 b 76 20 57 8 69 12 b 89 50 84 29 87 38 b 90 62 89 54 90 58 b 91 69 90 65 91 67 b 87 102 93 81 93 92 b 61 122 82 111 72 119 z "},"\"":{"ha":325,"x_min":0,"x_max":0,"o":"m 114 942 b 72 900 92 942 71 923 b 97 861 72 883 82 868 b 105 841 105 858 109 849 b 88 813 100 831 95 822 b 148 753 50 774 110 714 b 187 817 165 771 177 794 b 192 917 200 847 218 889 b 114 942 172 936 142 942 z m 338 917 b 260 942 318 936 288 942 b 218 900 238 942 217 923 b 243 861 218 883 228 868 b 251 841 251 858 255 849 b 234 813 246 831 241 822 b 294 753 196 774 256 714 b 333 817 311 771 323 794 b 338 917 346 847 364 889 z "},"#":{"ha":547,"x_min":0,"x_max":0,"o":"m 429 491 b 439 499 430 496 434 499 b 467 499 442 499 466 499 b 467 584 522 499 522 584 l 454 584 b 445 595 448 584 444 589 b 486 899 460 696 474 798 b 401 899 493 954 407 953 b 360 594 389 797 375 695 b 349 584 359 588 354 584 l 230 584 b 219 597 223 584 218 590 b 260 899 233 697 248 798 b 175 899 266 954 181 953 b 135 610 163 803 150 706 b 106 584 133 595 120 584 l 92 584 b 92 499 37 584 37 499 l 106 499 b 117 486 113 499 118 493 b 103 393 112 455 108 424 b 89 381 102 386 96 381 l 70 381 b 70 296 16 381 16 296 b 86 277 80 296 88 287 b 56 50 76 202 65 126 b 141 50 50 -4 135 -4 b 173 286 151 129 161 208 b 184 296 173 292 178 296 l 303 296 b 314 283 309 296 315 290 b 283 50 303 206 292 128 b 368 50 276 -4 361 -4 b 398 278 377 126 387 202 b 419 296 400 288 408 296 b 446 296 435 296 445 296 b 446 381 501 296 501 381 l 425 381 b 415 393 419 381 414 387 b 429 491 420 426 425 458 z m 344 486 b 329 391 339 454 334 422 b 318 381 329 385 324 381 b 199 381 279 381 239 381 b 188 394 193 381 187 387 b 203 489 193 426 198 457 b 214 499 203 495 208 499 l 333 499 b 344 486 339 499 345 493 z "},"$":{"ha":568,"x_min":0,"x_max":0,"o":"m 536 814 b 414 966 523 883 474 938 b 403 986 406 970 402 978 b 405 1004 403 992 404 998 b 320 999 412 1059 321 1057 b 308 986 319 992 314 986 b 252 973 289 984 270 980 b 141 667 121 924 88 786 b 226 523 163 616 194 569 b 241 454 239 503 245 478 b 190 108 224 339 206 223 b 176 100 189 101 182 97 b 95 221 131 123 99 163 b 10 221 92 276 7 276 b 170 11 17 117 82 42 b 177 0 174 9 177 5 b 172 -33 175 -11 174 -22 b 257 -33 166 -87 251 -87 b 258 -25 258 -31 258 -26 b 280 -6 260 -14 269 -6 b 280 -6 280 -6 280 -6 b 487 229 417 -2 514 86 b 354 493 469 325 413 411 b 341 548 343 509 338 529 b 387 867 357 654 373 760 b 404 873 389 875 397 878 b 454 792 429 854 448 826 b 536 814 465 738 547 761 z m 260 626 b 241 658 253 637 247 647 b 255 880 198 731 171 824 b 292 897 267 888 280 894 b 305 886 299 899 306 893 b 268 628 294 800 281 714 b 260 626 267 624 262 623 z m 402 225 b 373 105 412 181 414 134 b 284 79 348 86 315 81 b 273 91 277 79 272 84 b 315 380 286 187 300 284 b 323 382 316 384 321 385 b 402 225 357 333 389 281 z "},"%":{"ha":790,"x_min":0,"x_max":0,"o":"m 577 921 b 143 72 432 638 287 355 b 216 29 118 23 191 -20 b 650 878 361 312 505 595 b 577 921 675 927 602 970 z m 555 468 b 383 304 471 454 409 384 b 364 197 374 275 364 231 b 368 179 364 190 365 184 b 528 -2 373 86 415 0 b 729 242 656 -4 717 134 b 555 468 741 348 684 489 z m 645 254 b 550 85 640 196 616 103 b 461 269 438 56 445 204 b 549 378 475 316 505 359 b 645 254 626 410 651 312 z m 423 733 b 248 958 434 838 378 979 b 77 794 164 944 105 873 b 57 687 64 760 58 721 b 61 669 57 680 59 674 b 221 488 66 576 108 490 b 423 732 350 486 411 624 z m 149 732 b 168 793 152 753 158 774 b 242 868 184 826 209 854 b 339 744 320 900 344 802 b 243 575 333 686 309 593 b 149 732 146 550 139 660 z "},"&":{"ha":633,"x_min":0,"x_max":0,"o":"m 508 120 b 510 158 501 132 502 147 b 555 229 528 181 543 205 b 482 272 580 277 507 320 b 459 232 475 258 468 245 b 445 232 456 226 448 226 b 336 441 406 300 368 369 b 322 475 331 452 327 463 b 328 495 319 482 322 491 b 372 529 341 504 361 519 b 507 696 428 575 481 631 b 487 913 534 762 533 855 b 301 945 444 966 361 976 b 211 538 156 869 171 678 b 201 509 214 527 210 516 b 101 428 166 485 131 459 b 96 41 2 323 -41 137 b 421 67 206 -36 326 -6 b 443 62 428 73 438 70 b 479 -10 455 38 468 15 b 553 33 503 -59 576 -16 b 508 120 538 63 523 91 z m 307 841 b 424 855 334 873 393 897 b 324 600 489 765 385 655 b 315 593 321 597 318 595 b 282 604 304 583 285 589 b 269 701 275 636 270 668 b 307 841 267 752 274 801 z m 373 133 b 245 85 337 105 295 87 b 102 275 135 80 68 172 b 225 423 123 339 172 384 b 256 415 236 431 251 427 b 381 174 292 331 337 252 b 373 133 389 160 386 142 z "},"'":{"ha":221,"x_min":0,"x_max":0,"o":"m 208 917 b 129 942 187 936 157 942 b 87 900 107 942 86 923 b 113 861 88 883 98 868 b 120 841 120 858 124 849 b 103 813 115 831 110 822 b 163 753 65 774 125 714 b 202 817 180 771 192 794 b 208 917 215 847 233 889 z "},"(":{"ha":444,"x_min":0,"x_max":0,"o":"m 299 1008 b 49 482 144 886 64 673 b 154 -36 35 319 56 102 b 227 7 186 -80 259 -37 b 132 464 140 130 124 319 b 359 948 143 641 217 836 b 299 1008 402 982 342 1042 z "},")":{"ha":444,"x_min":0,"x_max":0,"o":"m 289 992 b 216 949 258 1037 184 994 b 311 493 303 827 319 638 b 84 9 301 316 226 120 b 144 -51 41 -25 102 -85 b 395 475 299 70 379 283 b 289 992 408 638 387 855 z "},"*":{"ha":385,"x_min":0,"x_max":0,"o":"m 330 770 b 357 770 340 770 352 770 b 357 855 412 770 412 855 b 305 855 340 855 323 855 b 294 868 298 855 293 861 b 301 903 295 873 299 895 b 271 956 305 926 294 949 b 219 926 250 961 223 949 b 210 882 218 923 213 895 b 177 854 207 866 193 855 b 113 854 156 854 134 854 b 113 769 58 854 58 769 b 123 770 113 769 118 769 b 125 760 123 770 133 769 b 54 684 102 734 77 709 b 114 624 17 644 77 583 b 223 743 151 664 187 703 b 240 741 228 748 237 747 b 290 634 257 705 274 669 b 364 677 314 585 387 628 b 324 760 351 705 337 732 b 330 770 322 765 325 770 z "},"+":{"ha":389,"x_min":0,"x_max":0,"o":"m 333 520 b 268 520 323 520 291 520 b 247 544 255 520 245 532 b 256 607 250 567 255 597 b 174 630 264 661 182 684 b 161 538 172 613 165 566 b 140 520 159 528 150 520 b 55 520 113 520 69 520 b 55 435 0 520 0 435 l 121 435 b 142 411 134 435 144 424 b 133 349 139 389 134 359 b 215 327 125 296 207 273 b 228 417 217 342 224 389 b 249 435 230 428 239 435 b 333 435 276 435 321 435 b 333 520 388 435 388 520 z "},",":{"ha":200,"x_min":0,"x_max":0,"o":"m 109 95 b 31 121 88 115 58 121 b -12 78 9 121 -13 101 b 14 39 -11 61 -1 46 b 22 20 22 36 25 27 b 4 -8 17 10 11 0 b 65 -68 -34 -47 26 -108 b 104 -5 82 -50 94 -27 b 109 95 117 26 134 67 z "},"-":{"ha":549,"x_min":0,"x_max":0,"o":"m 439 508 b 110 508 314 508 236 508 b 110 423 56 508 56 423 b 439 423 236 423 314 423 b 439 508 493 423 494 508 z "},".":{"ha":151,"x_min":0,"x_max":0,"o":"m 69 102 b 43 122 64 111 54 119 b 11 117 33 124 20 124 b -9 92 2 112 -7 103 b -14 50 -11 78 -13 64 b -2 20 -15 40 -9 27 b 28 8 5 13 18 7 b 58 20 39 8 51 12 b 71 50 66 29 69 38 b 72 62 71 54 72 58 b 73 69 72 65 73 67 b 69 102 75 81 75 92 z "},"/":{"ha":657,"x_min":0,"x_max":0,"o":"m 509 921 b 75 72 364 638 219 355 b 148 29 50 23 123 -20 b 582 878 293 312 437 595 b 509 921 607 927 533 970 z "},":":{"ha":179,"x_min":0,"x_max":0,"o":"m 53 122 b 20 117 42 124 30 124 b 1 92 12 112 3 103 b -5 50 -1 78 -3 64 b 8 20 -6 40 1 27 b 38 8 15 13 27 7 b 68 20 49 8 60 12 b 80 50 76 29 79 38 b 83 69 81 54 82 67 b 79 102 85 81 85 92 b 53 122 73 111 63 119 z m 132 513 b 107 533 127 522 117 531 b 74 529 96 535 84 535 b 55 503 66 523 56 514 b 49 461 53 489 51 475 b 62 431 48 451 55 438 b 92 419 69 424 81 418 b 122 431 103 419 114 423 b 134 461 130 440 133 450 b 137 481 135 466 136 478 b 132 513 138 492 139 503 z "},";":{"ha":217,"x_min":0,"x_max":0,"o":"m 142 513 b 117 533 137 522 127 531 b 84 529 106 535 94 535 b 65 503 76 523 66 514 b 59 461 63 489 61 475 b 72 431 58 451 65 438 b 102 419 79 424 91 418 b 132 431 113 419 124 423 b 144 461 140 440 143 450 b 147 481 145 466 146 478 b 142 513 148 492 149 503 z m 39 121 b -3 78 17 121 -4 101 b 22 39 -3 61 7 46 b 30 20 30 36 34 27 b 13 -8 25 10 20 0 b 73 -68 -25 -47 35 -108 b 112 -5 90 -50 102 -27 b 117 95 125 26 143 67 b 39 121 97 115 67 121 z "},"<":{"ha":475,"x_min":0,"x_max":0,"o":"m 406 684 b 241 626 351 664 296 645 l 100 577 b 90 499 70 566 54 516 b 216 442 132 480 174 461 b 362 375 265 419 313 397 b 405 448 411 352 454 426 b 246 521 352 473 299 497 b 247 538 239 524 239 535 b 429 602 308 559 368 581 b 406 684 480 620 458 702 z "},"=":{"ha":465,"x_min":0,"x_max":0,"o":"m 400 631 b 95 630 307 631 188 630 b 95 545 40 630 40 545 b 400 546 188 545 307 546 b 400 631 454 546 455 631 z m 368 412 b 63 411 275 411 156 411 b 63 326 9 411 9 326 b 368 327 156 326 275 326 b 368 412 423 327 423 412 z "},">":{"ha":485,"x_min":0,"x_max":0,"o":"m 393 555 b 265 614 350 575 308 595 b 122 679 217 636 169 658 b 79 606 72 702 29 629 b 237 534 132 582 185 558 b 237 516 245 530 245 519 b 55 453 176 495 116 474 b 78 371 4 435 26 353 b 228 423 128 388 178 406 b 383 478 280 441 331 459 b 393 555 414 488 429 539 z "},"?":{"ha":485,"x_min":0,"x_max":0,"o":"m 144 122 b 112 117 133 124 121 124 b 92 92 103 112 94 103 b 86 50 90 78 88 64 b 99 20 85 40 92 27 b 129 8 106 13 118 7 b 159 20 140 8 151 12 b 171 50 167 29 170 38 b 174 69 172 54 174 67 b 170 102 176 81 176 92 b 144 122 165 111 154 119 z m 471 799 b 304 956 452 878 389 950 b 58 810 197 965 120 886 b 118 750 24 768 84 707 b 332 861 165 808 245 908 b 363 625 407 820 414 686 b 184 466 312 563 235 529 b 118 281 141 413 127 347 b 203 281 111 227 197 227 b 272 436 211 340 228 393 b 404 546 313 476 363 505 b 471 799 474 613 493 705 z "},"@":{"ha":1025,"x_min":0,"x_max":0,"o":"m 970 742 b 779 921 932 823 860 885 b 226 829 595 1004 376 955 b 56 283 70 697 8 481 b 527 5 106 75 322 -47 b 505 87 580 18 558 100 b 126 405 294 34 129 201 b 457 859 123 616 251 801 b 912 639 624 906 891 849 b 859 413 919 567 905 471 b 728 319 829 375 779 338 b 712 331 720 315 711 322 b 762 742 728 468 745 605 b 684 762 767 788 706 795 b 665 762 680 755 670 756 b 390 756 595 847 470 835 b 268 463 314 682 278 566 b 459 206 256 334 302 185 b 609 296 519 214 569 248 b 622 290 614 301 623 297 b 619 262 621 281 620 271 b 642 224 617 242 628 229 b 662 220 648 221 654 219 b 986 506 821 221 957 357 b 970 742 1001 585 1005 667 z m 646 554 b 485 303 618 458 569 349 b 355 369 422 269 365 300 b 354 470 350 402 350 437 b 419 658 362 535 383 603 b 616 681 465 728 567 781 b 650 660 624 665 637 659 b 665 645 659 660 666 654 b 646 554 662 617 652 575 z "},"A":{"ha":532,"x_min":0,"x_max":0,"o":"m 40 39 b 122 251 67 109 95 180 b 169 283 130 270 148 283 l 348 283 b 369 263 359 283 368 274 b 391 54 376 194 384 124 b 476 54 396 0 481 0 b 453 275 468 128 461 201 b 460 292 452 282 455 288 b 454 363 481 311 479 349 b 442 379 447 366 443 372 b 387 905 423 554 406 730 b 388 937 385 915 385 928 b 304 955 400 985 323 1004 b 81 379 231 762 156 571 b 66 365 79 372 73 368 b 44 304 40 357 33 326 b 45 285 47 298 47 292 b -42 61 16 211 -13 136 b 40 39 -62 10 20 -12 z m 175 385 b 307 726 219 499 263 612 b 320 724 310 733 319 732 b 355 391 332 613 344 502 b 334 368 357 379 347 368 l 187 368 b 175 385 178 368 171 377 z "},"À":{"ha":532,"x_min":0,"x_max":0,"o":"m 40 39 b 122 251 67 109 95 180 b 169 283 130 270 148 283 l 348 283 b 369 263 359 283 368 274 b 391 54 376 194 384 124 b 476 54 396 0 481 0 b 453 275 468 128 461 201 b 460 292 452 282 455 288 b 454 363 481 311 479 349 b 442 379 447 366 443 372 b 387 905 423 554 406 730 b 388 937 385 915 385 928 b 304 955 400 985 323 1004 b 81 379 231 762 156 571 b 66 365 79 372 73 368 b 44 304 40 357 33 326 b 45 285 47 298 47 292 b -42 61 16 211 -13 136 b 40 39 -62 10 20 -12 z m 175 385 b 307 726 219 499 263 612 b 320 724 310 733 319 732 b 355 391 332 613 344 502 b 334 368 357 379 347 368 l 187 368 b 175 385 178 368 171 377 z "},"Á":{"ha":532,"x_min":0,"x_max":0,"o":"m 40 39 b 122 251 67 109 95 180 b 169 283 130 270 148 283 l 348 283 b 369 263 359 283 368 274 b 391 54 376 194 384 124 b 476 54 396 0 481 0 b 453 275 468 128 461 201 b 460 292 452 282 455 288 b 454 363 481 311 479 349 b 442 379 447 366 443 372 b 387 905 423 554 406 730 b 388 937 385 915 385 928 b 304 955 400 985 323 1004 b 81 379 231 762 156 571 b 66 365 79 372 73 368 b 44 304 40 357 33 326 b 45 285 47 298 47 292 b -42 61 16 211 -13 136 b 40 39 -62 10 20 -12 z m 175 385 b 307 726 219 499 263 612 b 320 724 310 733 319 732 b 355 391 332 613 344 502 b 334 368 357 379 347 368 l 187 368 b 175 385 178 368 171 377 z "},"Â":{"ha":532,"x_min":0,"x_max":0,"o":"m 40 39 b 122 251 67 109 95 180 b 169 283 130 270 148 283 l 348 283 b 369 263 359 283 368 274 b 391 54 376 194 384 124 b 476 54 396 0 481 0 b 453 275 468 128 461 201 b 460 292 452 282 455 288 b 454 363 481 311 479 349 b 442 379 447 366 443 372 b 387 905 423 554 406 730 b 388 937 385 915 385 928 b 304 955 400 985 323 1004 b 81 379 231 762 156 571 b 66 365 79 372 73 368 b 44 304 40 357 33 326 b 45 285 47 298 47 292 b -42 61 16 211 -13 136 b 40 39 -62 10 20 -12 z m 175 385 b 307 726 219 499 263 612 b 320 724 310 733 319 732 b 355 391 332 613 344 502 b 334 368 357 379 347 368 l 187 368 b 175 385 178 368 171 377 z "},"Ã":{"ha":532,"x_min":0,"x_max":0,"o":"m 40 39 b 122 251 67 109 95 180 b 169 283 130 270 148 283 l 348 283 b 369 263 359 283 368 274 b 391 54 376 194 384 124 b 476 54 396 0 481 0 b 453 275 468 128 461 201 b 460 292 452 282 455 288 b 454 363 481 311 479 349 b 442 379 447 366 443 372 b 387 905 423 554 406 730 b 388 937 385 915 385 928 b 304 955 400 985 323 1004 b 81 379 231 762 156 571 b 66 365 79 372 73 368 b 44 304 40 357 33 326 b 45 285 47 298 47 292 b -42 61 16 211 -13 136 b 40 39 -62 10 20 -12 z m 175 385 b 307 726 219 499 263 612 b 320 724 310 733 319 732 b 355 391 332 613 344 502 b 334 368 357 379 347 368 l 187 368 b 175 385 178 368 171 377 z "},"Ä":{"ha":532,"x_min":0,"x_max":0,"o":"m 40 39 b 122 251 67 109 95 180 b 169 283 130 270 148 283 l 348 283 b 369 263 359 283 368 274 b 391 54 376 194 384 124 b 476 54 396 0 481 0 b 453 275 468 128 461 201 b 460 292 452 282 455 288 b 454 363 481 311 479 349 b 442 379 447 366 443 372 b 387 905 423 554 406 730 b 388 937 385 915 385 928 b 304 955 400 985 323 1004 b 81 379 231 762 156 571 b 66 365 79 372 73 368 b 44 304 40 357 33 326 b 45 285 47 298 47 292 b -42 61 16 211 -13 136 b 40 39 -62 10 20 -12 z m 175 385 b 307 726 219 499 263 612 b 320 724 310 733 319 732 b 355 391 332 613 344 502 b 334 368 357 379 347 368 l 187 368 b 175 385 178 368 171 377 z "},"Å":{"ha":532,"x_min":0,"x_max":0,"o":"m 40 39 b 122 251 67 109 95 180 b 169 283 130 270 148 283 l 348 283 b 369 263 359 283 368 274 b 391 54 376 194 384 124 b 476 54 396 0 481 0 b 453 275 468 128 461 201 b 460 292 452 282 455 288 b 454 363 481 311 479 349 b 442 379 447 366 443 372 b 387 905 423 554 406 730 b 388 937 385 915 385 928 b 304 955 400 985 323 1004 b 81 379 231 762 156 571 b 66 365 79 372 73 368 b 44 304 40 357 33 326 b 45 285 47 298 47 292 b -42 61 16 211 -13 136 b 40 39 -62 10 20 -12 z m 175 385 b 307 726 219 499 263 612 b 320 724 310 733 319 732 b 355 391 332 613 344 502 b 334 368 357 379 347 368 l 187 368 b 175 385 178 368 171 377 z "},"B":{"ha":601,"x_min":0,"x_max":0,"o":"m 37 19 b 542 168 204 -29 456 -12 b 409 463 606 301 523 412 b 408 477 404 466 403 473 b 518 773 498 545 552 649 b 96 980 467 954 263 1007 b 119 898 43 971 65 889 l 119 898 b 137 880 130 899 139 890 b 137 878 137 879 137 878 b 40 131 108 628 71 380 b 21 91 38 116 31 102 b 37 19 1 71 1 29 z m 172 491 b 222 878 190 620 207 748 l 222 878 b 248 897 223 891 235 900 b 436 750 333 883 411 838 b 186 477 481 591 321 496 b 173 491 169 474 173 491 l 172 491 z m 124 119 b 161 408 136 215 148 312 b 168 410 162 411 166 413 b 209 395 178 399 192 392 b 324 405 247 401 285 412 b 444 344 370 397 414 379 b 434 160 491 287 485 211 b 152 83 363 89 253 72 b 124 119 134 85 122 101 z "},"C":{"ha":524,"x_min":0,"x_max":0,"o":"m 116 28 b 481 209 267 -88 425 73 b 399 232 502 260 420 282 b 128 141 357 129 210 -7 b 113 457 78 233 96 359 b 211 732 130 553 163 646 b 306 858 237 778 267 822 b 460 848 344 894 453 937 b 545 848 464 794 549 793 b 416 985 539 922 490 975 b 215 887 333 996 267 945 b 28 464 114 772 53 614 b 116 28 5 324 -12 127 z "},"Ç":{"ha":524,"x_min":0,"x_max":0,"o":"m 116 28 b 481 209 267 -88 425 73 b 399 232 502 260 420 282 b 128 141 357 129 210 -7 b 113 457 78 233 96 359 b 211 732 130 553 163 646 b 306 858 237 778 267 822 b 460 848 344 894 453 937 b 545 848 464 794 549 793 b 416 985 539 922 490 975 b 215 887 333 996 267 945 b 28 464 114 772 53 614 b 116 28 5 324 -12 127 z "},"D":{"ha":578,"x_min":0,"x_max":0,"o":"m 119 898 l 119 898 b 137 880 130 900 139 890 b 137 878 137 879 137 878 b 39 125 107 626 70 376 b 15 70 37 105 28 86 b 48 -2 -2 47 8 1 b 540 416 317 -24 489 170 b 495 853 570 559 578 725 b 96 980 411 984 238 1000 b 119 898 42 973 65 891 z m 222 878 l 222 878 b 250 900 223 892 236 902 b 444 770 332 889 406 852 b 446 389 497 655 478 508 b 145 86 403 230 300 111 b 122 108 132 84 121 95 b 222 878 153 365 191 621 z "},"E":{"ha":510,"x_min":0,"x_max":0,"o":"m 52 1 b 425 14 176 24 300 20 b 425 99 479 11 479 96 b 107 94 318 104 213 107 b 92 110 98 93 91 101 b 135 423 107 214 122 318 b 163 447 137 437 149 447 b 322 448 216 448 269 448 b 322 533 376 448 377 533 b 165 532 270 533 217 533 b 152 548 157 532 151 540 b 190 851 165 649 178 750 b 223 881 192 868 206 881 b 497 880 314 882 406 880 b 497 965 551 880 551 965 b 160 965 384 965 272 968 b 114 922 135 963 119 946 b 62 508 97 784 80 646 b -1 54 42 356 21 205 b 52 1 -6 19 26 -2 z "},"È":{"ha":510,"x_min":0,"x_max":0,"o":"m 52 1 b 425 14 176 24 300 20 b 425 99 479 11 479 96 b 107 94 318 104 213 107 b 92 110 98 93 91 101 b 135 423 107 214 122 318 b 163 447 137 437 149 447 b 322 448 216 448 269 448 b 322 533 376 448 377 533 b 165 532 270 533 217 533 b 152 548 157 532 151 540 b 190 851 165 649 178 750 b 223 881 192 868 206 881 b 497 880 314 882 406 880 b 497 965 551 880 551 965 b 160 965 384 965 272 968 b 114 922 135 963 119 946 b 62 508 97 784 80 646 b -1 54 42 356 21 205 b 52 1 -6 19 26 -2 z "},"É":{"ha":510,"x_min":0,"x_max":0,"o":"m 52 1 b 425 14 176 24 300 20 b 425 99 479 11 479 96 b 107 94 318 104 213 107 b 92 110 98 93 91 101 b 135 423 107 214 122 318 b 163 447 137 437 149 447 b 322 448 216 448 269 448 b 322 533 376 448 377 533 b 165 532 270 533 217 533 b 152 548 157 532 151 540 b 190 851 165 649 178 750 b 223 881 192 868 206 881 b 497 880 314 882 406 880 b 497 965 551 880 551 965 b 160 965 384 965 272 968 b 114 922 135 963 119 946 b 62 508 97 784 80 646 b -1 54 42 356 21 205 b 52 1 -6 19 26 -2 z "},"Ê":{"ha":510,"x_min":0,"x_max":0,"o":"m 52 1 b 425 14 176 24 300 20 b 425 99 479 11 479 96 b 107 94 318 104 213 107 b 92 110 98 93 91 101 b 135 423 107 214 122 318 b 163 447 137 437 149 447 b 322 448 216 448 269 448 b 322 533 376 448 377 533 b 165 532 270 533 217 533 b 152 548 157 532 151 540 b 190 851 165 649 178 750 b 223 881 192 868 206 881 b 497 880 314 882 406 880 b 497 965 551 880 551 965 b 160 965 384 965 272 968 b 114 922 135 963 119 946 b 62 508 97 784 80 646 b -1 54 42 356 21 205 b 52 1 -6 19 26 -2 z "},"Ë":{"ha":510,"x_min":0,"x_max":0,"o":"m 52 1 b 425 14 176 24 300 20 b 425 99 479 11 479 96 b 107 94 318 104 213 107 b 92 110 98 93 91 101 b 135 423 107 214 122 318 b 163 447 137 437 149 447 b 322 448 216 448 269 448 b 322 533 376 448 377 533 b 165 532 270 533 217 533 b 152 548 157 532 151 540 b 190 851 165 649 178 750 b 223 881 192 868 206 881 b 497 880 314 882 406 880 b 497 965 551 880 551 965 b 160 965 384 965 272 968 b 114 922 135 963 119 946 b 62 508 97 784 80 646 b -1 54 42 356 21 205 b 52 1 -6 19 26 -2 z "},"F":{"ha":479,"x_min":0,"x_max":0,"o":"m 81 31 b 135 423 100 162 118 292 b 163 447 137 437 149 447 b 322 448 216 448 269 448 b 322 533 376 448 377 533 b 165 532 270 533 217 533 b 152 548 157 532 151 540 b 190 851 165 649 178 750 b 223 881 192 868 206 881 b 497 880 314 882 406 880 b 497 965 551 880 551 965 b 160 965 384 965 272 968 b 114 922 135 963 119 946 b 58 483 96 776 78 630 b -1 54 40 340 20 197 b 81 31 -9 0 73 -23 z "},"G":{"ha":611,"x_min":0,"x_max":0,"o":"m 42 131 b 372 48 98 -13 255 -50 b 541 387 467 126 514 262 b 584 446 547 411 561 434 b 563 526 619 466 611 530 b 428 521 518 522 473 520 b 255 532 371 522 313 526 b 255 447 201 539 201 454 b 443 436 317 440 380 436 b 460 414 454 436 463 426 b 360 158 441 324 412 229 b 153 110 312 92 221 38 b 99 298 107 158 101 235 b 176 660 95 419 127 549 b 277 827 202 719 234 778 b 366 898 301 854 330 886 b 461 848 406 910 458 895 b 546 848 466 794 551 793 b 260 930 534 1002 359 1015 b 48 549 150 836 85 686 b 42 131 12 419 -8 259 z "},"H":{"ha":538,"x_min":0,"x_max":0,"o":"m 89 43 b 141 433 106 173 124 303 b 157 447 142 441 149 447 b 364 448 226 448 295 448 b 381 429 374 448 382 439 b 330 43 364 300 347 171 b 415 43 322 -11 408 -11 b 464 416 431 167 448 291 b 486 455 466 431 473 446 b 495 516 505 469 508 497 b 483 561 486 529 481 545 b 531 922 499 681 515 802 b 446 922 538 976 453 976 l 397 547 b 380 533 395 539 388 533 b 173 532 311 533 242 533 b 157 551 163 532 155 541 b 206 922 173 675 189 799 b 121 922 213 976 128 976 b 72 552 104 799 88 675 b 54 525 70 541 63 532 b 46 463 35 511 33 482 b 56 430 53 454 57 442 b 4 43 38 301 21 172 b 89 43 -3 -11 82 -11 z "},"I":{"ha":199,"x_min":0,"x_max":0,"o":"m 84 43 b 200 922 122 336 161 629 b 115 922 207 976 122 976 b -1 43 76 629 37 336 b 84 43 -9 -11 77 -11 z "},"Ì":{"ha":199,"x_min":0,"x_max":0,"o":"m 84 43 b 200 922 122 336 161 629 b 115 922 207 976 122 976 b -1 43 76 629 37 336 b 84 43 -9 -11 77 -11 z "},"Í":{"ha":199,"x_min":0,"x_max":0,"o":"m 84 43 b 200 922 122 336 161 629 b 115 922 207 976 122 976 b -1 43 76 629 37 336 b 84 43 -9 -11 77 -11 z "},"Î":{"ha":199,"x_min":0,"x_max":0,"o":"m 84 43 b 200 922 122 336 161 629 b 115 922 207 976 122 976 b -1 43 76 629 37 336 b 84 43 -9 -11 77 -11 z "},"Ï":{"ha":199,"x_min":0,"x_max":0,"o":"m 84 43 b 200 922 122 336 161 629 b 115 922 207 976 122 976 b -1 43 76 629 37 336 b 84 43 -9 -11 77 -11 z "},"J":{"ha":332,"x_min":0,"x_max":0,"o":"m -24 -16 b 215 144 83 -11 175 42 b 338 921 254 246 320 773 b 253 921 344 975 259 974 b 166 309 239 803 181 395 b -24 69 144 191 120 76 b -24 -16 -78 67 -79 -18 z "},"K":{"ha":524,"x_min":0,"x_max":0,"o":"m 99 53 b 142 390 112 165 127 277 b 159 428 144 404 150 417 l 171 443 b 190 439 177 449 187 447 b 261 251 211 375 234 312 b 403 22 295 171 334 78 b 463 82 445 -12 505 48 b 333 296 399 134 364 222 b 256 509 304 365 279 437 b 266 554 251 524 255 542 b 532 879 356 661 446 769 b 472 939 565 922 505 983 b 180 584 378 818 279 701 b 169 589 176 579 168 583 b 212 922 184 700 199 811 b 127 922 218 976 133 976 b 69 475 109 773 89 624 b 47 427 66 457 59 440 b 26 401 40 418 33 410 b 42 331 5 376 19 343 b 48 320 46 329 48 325 b 14 53 36 231 24 142 b 99 53 7 -2 92 -1 z "},"L":{"ha":499,"x_min":0,"x_max":0,"o":"m 52 1 b 425 14 176 24 300 20 b 425 99 479 11 479 96 b 126 97 324 104 225 107 b 95 128 107 95 92 110 b 199 922 133 393 166 658 b 114 922 206 977 121 976 b 70 570 100 805 85 687 b -1 54 47 398 24 226 b 52 1 -6 19 26 -2 z "},"M":{"ha":775,"x_min":0,"x_max":0,"o":"m 89 55 l 171 723 b 180 724 171 729 178 729 b 346 264 236 571 291 417 b 428 287 365 213 447 235 b 418 317 425 297 421 307 b 426 389 409 341 412 368 b 655 734 474 461 586 630 b 664 731 657 738 664 736 b 582 50 636 504 609 277 b 667 50 575 -4 660 -4 b 770 906 701 335 735 620 b 733 964 771 914 780 964 b 693 945 718 964 703 961 b 379 471 588 787 484 629 b 361 473 374 464 364 465 b 203 912 311 612 227 844 b 195 941 199 921 197 931 b 111 928 187 981 117 977 b 4 55 110 922 39 340 b 89 55 -3 1 82 2 z "},"N":{"ha":528,"x_min":0,"x_max":0,"o":"m 4 55 b 89 55 -3 1 82 2 b 169 712 116 274 142 493 b 177 712 170 716 176 717 b 331 108 226 526 307 204 b 335 50 336 89 337 69 b 420 50 328 -4 413 -4 b 525 924 455 341 490 633 b 440 924 531 978 446 978 b 369 340 416 729 393 534 b 362 339 369 335 363 335 b 206 935 312 538 258 737 b 177 964 201 952 188 958 b 111 928 154 976 115 963 b 38 334 86 730 62 532 b 4 55 27 241 15 148 z "},"Ñ":{"ha":528,"x_min":0,"x_max":0,"o":"m 4 55 b 89 55 -3 1 82 2 b 169 712 116 274 142 493 b 177 712 170 716 176 717 b 331 108 226 526 307 204 b 335 50 336 89 337 69 b 420 50 328 -4 413 -4 b 525 924 455 341 490 633 b 440 924 531 978 446 978 b 369 340 416 729 393 534 b 362 339 369 335 363 335 b 206 935 312 538 258 737 b 177 964 201 952 188 958 b 111 928 154 976 115 963 b 38 334 86 730 62 532 b 4 55 27 241 15 148 z "},"O":{"ha":596,"x_min":0,"x_max":0,"o":"m 254 -4 b 545 357 428 0 514 216 b 494 914 582 531 594 759 b 488 922 492 917 490 920 b 487 923 488 922 487 923 b 154 849 385 1054 225 957 b 20 334 58 704 21 504 b 254 -4 20 190 74 -7 z m 145 610 b 237 820 166 682 192 759 b 422 869 281 880 362 937 b 471 421 501 744 494 562 b 385 177 457 339 435 246 b 168 116 333 106 248 43 b 106 355 104 176 104 275 b 145 610 108 442 121 527 z "},"Ò":{"ha":596,"x_min":0,"x_max":0,"o":"m 254 -4 b 545 357 428 0 514 216 b 494 914 582 531 594 759 b 488 922 492 917 490 920 b 487 923 488 922 487 923 b 154 849 385 1054 225 957 b 20 334 58 704 21 504 b 254 -4 20 190 74 -7 z m 145 610 b 237 820 166 682 192 759 b 422 869 281 880 362 937 b 471 421 501 744 494 562 b 385 177 457 339 435 246 b 168 116 333 106 248 43 b 106 355 104 176 104 275 b 145 610 108 442 121 527 z "},"Ó":{"ha":596,"x_min":0,"x_max":0,"o":"m 254 -4 b 545 357 428 0 514 216 b 494 914 582 531 594 759 b 488 922 492 917 490 920 b 487 923 488 922 487 923 b 154 849 385 1054 225 957 b 20 334 58 704 21 504 b 254 -4 20 190 74 -7 z m 145 610 b 237 820 166 682 192 759 b 422 869 281 880 362 937 b 471 421 501 744 494 562 b 385 177 457 339 435 246 b 168 116 333 106 248 43 b 106 355 104 176 104 275 b 145 610 108 442 121 527 z "},"Ô":{"ha":596,"x_min":0,"x_max":0,"o":"m 254 -4 b 545 357 428 0 514 216 b 494 914 582 531 594 759 b 488 922 492 917 490 920 b 487 923 488 922 487 923 b 154 849 385 1054 225 957 b 20 334 58 704 21 504 b 254 -4 20 190 74 -7 z m 145 610 b 237 820 166 682 192 759 b 422 869 281 880 362 937 b 471 421 501 744 494 562 b 385 177 457 339 435 246 b 168 116 333 106 248 43 b 106 355 104 176 104 275 b 145 610 108 442 121 527 z "},"Õ":{"ha":596,"x_min":0,"x_max":0,"o":"m 254 -4 b 545 357 428 0 514 216 b 494 914 582 531 594 759 b 488 922 492 917 490 920 b 487 923 488 922 487 923 b 154 849 385 1054 225 957 b 20 334 58 704 21 504 b 254 -4 20 190 74 -7 z m 145 610 b 237 820 166 682 192 759 b 422 869 281 880 362 937 b 471 421 501 744 494 562 b 385 177 457 339 435 246 b 168 116 333 106 248 43 b 106 355 104 176 104 275 b 145 610 108 442 121 527 z "},"Ö":{"ha":596,"x_min":0,"x_max":0,"o":"m 254 -4 b 545 357 428 0 514 216 b 494 914 582 531 594 759 b 488 922 492 917 490 920 b 487 923 488 922 487 923 b 154 849 385 1054 225 957 b 20 334 58 704 21 504 b 254 -4 20 190 74 -7 z m 145 610 b 237 820 166 682 192 759 b 422 869 281 880 362 937 b 471 421 501 744 494 562 b 385 177 457 339 435 246 b 168 116 333 106 248 43 b 106 355 104 176 104 275 b 145 610 108 442 121 527 z "},"Ø":{"ha":596,"x_min":0,"x_max":0,"o":"m 254 -4 b 545 357 428 0 514 216 b 494 914 582 531 594 759 b 488 922 492 917 490 920 b 487 923 488 922 487 923 b 154 849 385 1054 225 957 b 20 334 58 704 21 504 b 254 -4 20 190 74 -7 z m 145 610 b 237 820 166 682 192 759 b 422 869 281 880 362 937 b 471 421 501 744 494 562 b 385 177 457 339 435 246 b 168 116 333 106 248 43 b 106 355 104 176 104 275 b 145 610 108 442 121 527 z "},"P":{"ha":522,"x_min":0,"x_max":0,"o":"m 118 894 b 118 894 118 894 118 894 b 136 876 129 896 137 887 b 136 875 136 876 136 875 b 30 50 103 599 62 325 b 115 50 23 -4 108 -4 b 137 232 122 111 129 171 b 186 279 140 257 161 277 b 523 695 391 298 554 483 b 95 976 492 906 298 1016 b 118 894 42 965 64 883 z m 158 390 b 221 875 179 551 202 713 b 221 875 221 875 221 875 b 245 893 222 887 233 896 b 439 688 343 871 421 799 b 182 364 465 522 339 382 b 158 390 168 363 156 375 z "},"Q":{"ha":596,"x_min":0,"x_max":0,"o":"m 254 -4 b 291 0 266 -4 279 -3 b 319 -12 302 2 313 -2 b 387 -102 340 -43 363 -74 b 447 -42 423 -144 483 -83 b 396 25 429 -21 412 1 b 400 59 389 36 390 50 b 545 357 479 135 525 262 b 487 923 582 533 596 768 b 154 849 385 1054 225 957 b 20 333 58 704 21 504 b 254 -4 20 189 74 -8 z m 106 353 b 145 609 108 440 121 526 b 237 820 166 681 191 759 b 422 869 281 879 362 937 b 471 421 501 744 494 562 b 385 177 457 338 435 246 b 346 131 374 161 360 145 b 333 134 342 128 335 129 b 288 246 315 170 300 208 b 206 223 272 298 190 276 b 258 95 220 179 238 136 b 252 83 261 89 257 83 b 168 116 224 81 196 90 b 106 353 105 174 104 273 z "},"R":{"ha":564,"x_min":0,"x_max":0,"o":"m 126 51 b 153 265 135 123 144 194 b 186 297 155 282 169 296 l 210 300 b 266 269 233 302 255 290 b 430 21 312 181 362 90 b 490 81 469 -18 529 42 b 342 307 429 143 383 227 b 353 345 335 321 340 337 b 537 679 470 409 552 533 b 90 973 515 905 307 1025 b 109 891 37 960 55 880 l 130 895 b 148 878 140 897 149 888 b 41 51 148 877 74 327 b 126 51 35 -3 120 -3 z m 171 399 b 233 881 192 558 233 880 b 251 895 233 891 242 897 b 452 683 354 875 436 799 b 187 382 473 523 338 387 b 171 399 177 381 170 390 z "},"S":{"ha":517,"x_min":0,"x_max":0,"o":"m -15 224 b 244 -4 -7 83 108 -4 b 462 232 385 -3 489 85 b 215 660 432 392 295 523 b 229 882 173 733 146 827 b 429 794 309 935 411 883 b 511 817 440 741 522 763 b 227 976 486 942 347 1021 b 115 669 95 927 63 789 b 248 456 149 593 202 525 b 376 227 295 385 357 311 b 348 107 386 183 388 136 b 244 81 319 86 279 81 b 70 224 157 81 76 129 b -15 224 66 278 -19 279 z "},"T":{"ha":463,"x_min":0,"x_max":0,"o":"m 74 880 b 213 881 120 881 167 882 b 239 852 229 881 241 867 b 133 54 206 586 172 319 b 215 31 125 0 207 -23 b 325 857 255 306 290 582 b 351 881 327 871 338 881 b 483 880 395 880 439 880 b 483 965 538 880 538 965 b 74 965 347 965 210 969 b 74 880 19 963 19 878 z "},"U":{"ha":554,"x_min":0,"x_max":0,"o":"m 62 73 b 272 -1 111 11 195 -13 b 464 260 404 18 442 148 b 525 648 489 389 507 518 b 562 920 539 742 550 826 b 478 930 569 974 485 983 b 405 414 456 757 433 585 b 341 142 391 328 385 220 b 150 105 303 76 212 60 b 114 350 78 157 106 276 b 200 925 134 547 176 728 b 115 925 206 979 121 978 b 27 330 91 722 46 534 b 62 73 18 243 4 147 z "},"Ù":{"ha":554,"x_min":0,"x_max":0,"o":"m 62 73 b 272 -1 111 11 195 -13 b 464 260 404 18 442 148 b 525 648 489 389 507 518 b 562 920 539 742 550 826 b 478 930 569 974 485 983 b 405 414 456 757 433 585 b 341 142 391 328 385 220 b 150 105 303 76 212 60 b 114 350 78 157 106 276 b 200 925 134 547 176 728 b 115 925 206 979 121 978 b 27 330 91 722 46 534 b 62 73 18 243 4 147 z "},"Ú":{"ha":554,"x_min":0,"x_max":0,"o":"m 62 73 b 272 -1 111 11 195 -13 b 464 260 404 18 442 148 b 525 648 489 389 507 518 b 562 920 539 742 550 826 b 478 930 569 974 485 983 b 405 414 456 757 433 585 b 341 142 391 328 385 220 b 150 105 303 76 212 60 b 114 350 78 157 106 276 b 200 925 134 547 176 728 b 115 925 206 979 121 978 b 27 330 91 722 46 534 b 62 73 18 243 4 147 z "},"Û":{"ha":554,"x_min":0,"x_max":0,"o":"m 62 73 b 272 -1 111 11 195 -13 b 464 260 404 18 442 148 b 525 648 489 389 507 518 b 562 920 539 742 550 826 b 478 930 569 974 485 983 b 405 414 456 757 433 585 b 341 142 391 328 385 220 b 150 105 303 76 212 60 b 114 350 78 157 106 276 b 200 925 134 547 176 728 b 115 925 206 979 121 978 b 27 330 91 722 46 534 b 62 73 18 243 4 147 z "},"Ü":{"ha":554,"x_min":0,"x_max":0,"o":"m 62 73 b 272 -1 111 11 195 -13 b 464 260 404 18 442 148 b 525 648 489 389 507 518 b 562 920 539 742 550 826 b 478 930 569 974 485 983 b 405 414 456 757 433 585 b 341 142 391 328 385 220 b 150 105 303 76 212 60 b 114 350 78 157 106 276 b 200 925 134 547 176 728 b 115 925 206 979 121 978 b 27 330 91 722 46 534 b 62 73 18 243 4 147 z "},"V":{"ha":492,"x_min":0,"x_max":0,"o":"m 147 63 b 144 38 148 55 147 46 b 226 16 127 -13 209 -36 b 531 913 328 315 429 614 b 449 936 549 965 467 987 b 227 282 375 718 301 500 b 213 284 225 275 214 276 b 135 932 194 501 168 717 b 53 910 126 986 44 963 b 147 63 96 635 126 338 z "},"W":{"ha":822,"x_min":0,"x_max":0,"o":"m 107 6 b 346 199 233 -54 310 109 b 362 239 351 210 358 228 b 367 239 362 239 366 248 l 372 207 b 447 21 382 144 397 66 b 669 112 532 -55 630 36 b 776 510 733 233 755 377 b 831 913 797 644 809 779 b 749 936 839 967 757 990 b 633 250 712 707 703 472 b 510 79 622 213 575 58 b 454 229 469 93 459 195 b 463 543 440 333 441 459 b 381 565 476 596 396 618 b 298 310 356 479 328 394 b 251 190 284 270 269 229 b 114 132 229 141 144 10 b 117 331 98 194 111 268 b 196 924 123 400 180 795 b 111 924 204 978 118 978 b 39 400 89 749 58 575 b 107 6 27 291 -14 62 z "},"X":{"ha":476,"x_min":0,"x_max":0,"o":"m 430 943 b 264 629 375 838 320 734 b 249 631 261 622 251 623 b 162 933 220 731 191 832 b 80 910 147 985 65 963 b 191 523 96 855 170 597 b 187 483 195 510 194 496 b -29 74 149 410 4 137 b 44 31 -55 25 18 -18 b 222 367 103 143 162 255 b 237 365 225 373 235 372 b 330 41 268 257 299 149 b 412 63 345 -12 427 10 b 294 473 389 142 311 415 b 298 512 291 486 292 500 b 504 900 339 589 476 848 b 430 943 529 949 456 992 z "},"Y":{"ha":446,"x_min":0,"x_max":0,"o":"m 421 945 b 259 669 365 854 312 762 b 244 670 256 663 247 663 b 116 943 201 761 158 851 b 42 900 93 992 20 949 b 172 622 85 807 129 715 b 193 482 193 579 200 530 l 193 481 b 134 70 174 344 154 207 b 216 47 127 16 209 -7 b 274 449 236 181 255 315 b 310 587 281 501 284 541 b 494 902 370 693 430 798 b 421 945 523 948 450 991 z "},"Ý":{"ha":446,"x_min":0,"x_max":0,"o":"m 421 945 b 259 669 365 854 312 762 b 244 670 256 663 247 663 b 116 943 201 761 158 851 b 42 900 93 992 20 949 b 172 622 85 807 129 715 b 193 482 193 579 200 530 l 193 481 b 134 70 174 344 154 207 b 216 47 127 16 209 -7 b 274 449 236 181 255 315 b 310 587 281 501 284 541 b 494 902 370 693 430 798 b 421 945 523 948 450 991 z "},"Ÿ":{"ha":446,"x_min":0,"x_max":0,"o":"m 421 945 b 259 669 365 854 312 762 b 244 670 256 663 247 663 b 116 943 201 761 158 851 b 42 900 93 992 20 949 b 172 622 85 807 129 715 b 193 482 193 579 200 530 l 193 481 b 134 70 174 344 154 207 b 216 47 127 16 209 -7 b 274 449 236 181 255 315 b 310 587 281 501 284 541 b 494 902 370 693 430 798 b 421 945 523 948 450 991 z "},"Z":{"ha":508,"x_min":0,"x_max":0,"o":"m 507 962 b 153 964 507 962 254 967 b 153 879 99 962 99 877 b 432 879 246 882 339 877 b -38 80 264 619 107 353 b 5 16 -57 45 -24 16 b 389 14 19 17 342 14 b 389 99 444 14 444 99 l 69 99 b 548 900 217 373 377 640 b 507 962 569 933 538 964 z "},"[":{"ha":422,"x_min":0,"x_max":0,"o":"m 311 1019 b 179 1019 290 1019 202 1019 b 136 976 151 1018 140 998 b -2 -15 97 645 37 316 b 50 -54 -6 -49 26 -56 b 182 -54 72 -53 160 -54 b 182 31 237 -54 237 31 l 122 31 b 93 63 104 31 91 46 b 213 909 129 346 177 626 b 241 934 214 923 227 934 b 311 934 265 934 299 934 b 311 1019 365 934 365 1019 z "},"\\":{"ha":539,"x_min":0,"x_max":0,"o":"m 467 61 b 154 911 363 345 258 628 b 72 888 135 962 53 940 b 385 39 176 605 281 322 b 467 61 404 -12 486 10 z "},"]":{"ha":421,"x_min":0,"x_max":0,"o":"m 371 1019 b 239 1018 349 1017 261 1018 b 239 933 184 1018 184 933 l 299 934 b 328 901 317 934 330 918 b 209 56 292 619 244 338 b 180 31 207 42 195 31 b 110 31 156 31 122 31 b 110 -54 56 31 56 -54 b 242 -54 131 -54 219 -54 b 285 -12 270 -54 281 -34 b 423 980 324 320 384 648 b 371 1019 427 1014 395 1020 z "},"^":{"ha":468,"x_min":0,"x_max":0,"o":"m 396 668 b 314 937 380 720 325 900 b 236 947 303 971 255 979 b 76 675 214 909 107 728 b 149 632 48 628 121 585 b 253 808 184 691 218 749 b 265 806 256 813 263 812 b 314 645 281 753 298 699 b 396 668 330 593 412 615 z "},"_":{"ha":610,"x_min":0,"x_max":0,"o":"m 505 60 b 8 59 340 60 174 60 b 8 0 -30 59 -30 0 b 505 0 174 0 340 0 b 505 60 544 1 544 60 z "},"`":{"ha":233,"x_min":0,"x_max":0,"o":"m 219 775 b 172 925 203 825 187 875 b 90 903 155 977 73 955 b 137 753 105 853 121 803 b 219 775 153 700 235 723 z "},"a":{"ha":536,"x_min":0,"x_max":0,"o":"m 438 549 b 427 548 436 544 430 544 b 147 548 357 639 229 628 b 25 255 71 474 35 358 b 216 -2 13 126 59 -23 b 375 98 280 7 333 46 b 381 96 377 101 381 99 b 376 54 379 82 378 68 b 461 54 370 0 455 0 b 518 534 470 135 509 455 b 438 549 524 582 457 587 z m 422 442 b 417 407 420 430 420 418 b 242 95 395 301 344 151 b 112 160 179 61 122 92 b 176 449 98 259 123 365 b 373 473 222 520 324 572 b 412 452 382 455 397 450 b 422 442 418 453 423 448 z "},"à":{"ha":536,"x_min":0,"x_max":0,"o":"m 438 549 b 427 548 436 544 430 544 b 147 548 357 639 229 628 b 25 255 71 474 35 358 b 216 -2 13 126 59 -23 b 375 98 280 7 333 46 b 381 96 377 101 381 99 b 376 54 379 82 378 68 b 461 54 370 0 455 0 b 518 534 470 135 509 455 b 438 549 524 582 457 587 z m 422 442 b 417 407 420 430 420 418 b 242 95 395 301 344 151 b 112 160 179 61 122 92 b 176 449 98 259 123 365 b 373 473 222 520 324 572 b 412 452 382 455 397 450 b 422 442 418 453 423 448 z "},"á":{"ha":536,"x_min":0,"x_max":0,"o":"m 438 549 b 427 548 436 544 430 544 b 147 548 357 639 229 628 b 25 255 71 474 35 358 b 216 -2 13 126 59 -23 b 375 98 280 7 333 46 b 381 96 377 101 381 99 b 376 54 379 82 378 68 b 461 54 370 0 455 0 b 518 534 470 135 509 455 b 438 549 524 582 457 587 z m 422 442 b 417 407 420 430 420 418 b 242 95 395 301 344 151 b 112 160 179 61 122 92 b 176 449 98 259 123 365 b 373 473 222 520 324 572 b 412 452 382 455 397 450 b 422 442 418 453 423 448 z "},"â":{"ha":536,"x_min":0,"x_max":0,"o":"m 438 549 b 427 548 436 544 430 544 b 147 548 357 639 229 628 b 25 255 71 474 35 358 b 216 -2 13 126 59 -23 b 375 98 280 7 333 46 b 381 96 377 101 381 99 b 376 54 379 82 378 68 b 461 54 370 0 455 0 b 518 534 470 135 509 455 b 438 549 524 582 457 587 z m 422 442 b 417 407 420 430 420 418 b 242 95 395 301 344 151 b 112 160 179 61 122 92 b 176 449 98 259 123 365 b 373 473 222 520 324 572 b 412 452 382 455 397 450 b 422 442 418 453 423 448 z "},"ã":{"ha":536,"x_min":0,"x_max":0,"o":"m 438 549 b 427 548 436 544 430 544 b 147 548 357 639 229 628 b 25 255 71 474 35 358 b 216 -2 13 126 59 -23 b 375 98 280 7 333 46 b 381 96 377 101 381 99 b 376 54 379 82 378 68 b 461 54 370 0 455 0 b 518 534 470 135 509 455 b 438 549 524 582 457 587 z m 422 442 b 417 407 420 430 420 418 b 242 95 395 301 344 151 b 112 160 179 61 122 92 b 176 449 98 259 123 365 b 373 473 222 520 324 572 b 412 452 382 455 397 450 b 422 442 418 453 423 448 z "},"ä":{"ha":536,"x_min":0,"x_max":0,"o":"m 438 549 b 427 548 436 544 430 544 b 147 548 357 639 229 628 b 25 255 71 474 35 358 b 216 -2 13 126 59 -23 b 375 98 280 7 333 46 b 381 96 377 101 381 99 b 376 54 379 82 378 68 b 461 54 370 0 455 0 b 518 534 470 135 509 455 b 438 549 524 582 457 587 z m 422 442 b 417 407 420 430 420 418 b 242 95 395 301 344 151 b 112 160 179 61 122 92 b 176 449 98 259 123 365 b 373 473 222 520 324 572 b 412 452 382 455 397 450 b 422 442 418 453 423 448 z "},"å":{"ha":536,"x_min":0,"x_max":0,"o":"m 438 549 b 427 548 436 544 430 544 b 147 548 357 639 229 628 b 25 255 71 474 35 358 b 216 -2 13 126 59 -23 b 375 98 280 7 333 46 b 381 96 377 101 381 99 b 376 54 379 82 378 68 b 461 54 370 0 455 0 b 518 534 470 135 509 455 b 438 549 524 582 457 587 z m 422 442 b 417 407 420 430 420 418 b 242 95 395 301 344 151 b 112 160 179 61 122 92 b 176 449 98 259 123 365 b 373 473 222 520 324 572 b 412 452 382 455 397 450 b 422 442 418 453 423 448 z "},"b":{"ha":529,"x_min":0,"x_max":0,"o":"m 434 551 b 280 616 395 596 340 621 b 177 562 240 612 206 589 b 169 566 174 559 168 561 b 215 921 185 684 201 802 b 130 921 222 975 137 975 b 16 53 109 743 29 162 b 101 53 10 -1 95 0 b 104 77 102 61 103 69 b 115 80 105 82 112 84 b 178 23 132 57 152 38 b 471 162 308 -50 425 39 b 434 551 516 279 521 450 z m 396 203 b 193 119 367 117 276 27 b 143 377 133 186 138 293 b 152 438 146 398 149 418 b 168 451 153 446 160 453 b 202 465 180 449 192 452 b 298 530 228 494 257 529 b 385 474 337 531 366 506 b 396 203 430 398 424 284 z "},"c":{"ha":476,"x_min":0,"x_max":0,"o":"m 368 171 b 131 115 323 103 199 38 b 131 353 80 172 110 288 b 235 505 151 411 184 469 b 377 495 277 534 346 548 b 450 538 404 448 478 491 b 211 590 401 623 292 633 b 39 341 119 540 64 439 b 120 19 11 229 1 80 b 442 128 237 -41 374 26 b 368 171 472 173 399 216 z "},"ç":{"ha":476,"x_min":0,"x_max":0,"o":"m 368 171 b 131 115 323 103 199 38 b 131 353 80 172 110 288 b 235 505 151 411 184 469 b 377 495 277 534 346 548 b 450 538 404 448 478 491 b 211 590 401 623 292 633 b 39 341 119 540 64 439 b 120 19 11 229 1 80 b 442 128 237 -41 374 26 b 368 171 472 173 399 216 z "},"d":{"ha":539,"x_min":0,"x_max":0,"o":"m 489 924 b 439 547 474 798 456 673 b 429 545 438 542 432 541 b 147 548 360 639 230 629 b 25 255 71 474 35 358 b 216 -2 13 126 59 -23 b 372 94 279 6 330 44 b 380 91 375 98 381 95 b 376 54 379 79 377 66 b 461 54 370 0 455 0 b 574 924 473 165 553 749 b 489 924 580 978 495 977 z m 427 446 b 242 95 410 341 356 158 b 112 160 179 61 122 92 b 111 262 107 194 107 228 b 176 449 119 327 140 394 b 373 473 222 520 324 572 b 419 454 383 453 402 448 b 427 446 424 456 428 452 z "},"e":{"ha":496,"x_min":0,"x_max":0,"o":"m 372 171 b 110 192 306 72 119 35 l 109 211 b 117 215 109 215 114 218 b 141 205 123 210 131 206 b 395 267 230 195 325 206 b 471 494 458 321 490 412 b 164 553 436 643 260 637 b 42 106 54 457 -16 245 b 445 128 117 -77 360 1 b 372 171 476 173 402 216 z m 120 307 b 206 476 135 370 163 431 b 387 479 250 522 359 571 b 313 313 406 415 368 345 b 141 290 261 282 199 284 l 132 291 b 120 307 124 292 119 299 z "},"è":{"ha":496,"x_min":0,"x_max":0,"o":"m 372 171 b 110 192 306 72 119 35 l 109 211 b 117 215 109 215 114 218 b 141 205 123 210 131 206 b 395 267 230 195 325 206 b 471 494 458 321 490 412 b 164 553 436 643 260 637 b 42 106 54 457 -16 245 b 445 128 117 -77 360 1 b 372 171 476 173 402 216 z m 120 307 b 206 476 135 370 163 431 b 387 479 250 522 359 571 b 313 313 406 415 368 345 b 141 290 261 282 199 284 l 132 291 b 120 307 124 292 119 299 z "},"é":{"ha":496,"x_min":0,"x_max":0,"o":"m 372 171 b 110 192 306 72 119 35 l 109 211 b 117 215 109 215 114 218 b 141 205 123 210 131 206 b 395 267 230 195 325 206 b 471 494 458 321 490 412 b 164 553 436 643 260 637 b 42 106 54 457 -16 245 b 445 128 117 -77 360 1 b 372 171 476 173 402 216 z m 120 307 b 206 476 135 370 163 431 b 387 479 250 522 359 571 b 313 313 406 415 368 345 b 141 290 261 282 199 284 l 132 291 b 120 307 124 292 119 299 z "},"ê":{"ha":496,"x_min":0,"x_max":0,"o":"m 372 171 b 110 192 306 72 119 35 l 109 211 b 117 215 109 215 114 218 b 141 205 123 210 131 206 b 395 267 230 195 325 206 b 471 494 458 321 490 412 b 164 553 436 643 260 637 b 42 106 54 457 -16 245 b 445 128 117 -77 360 1 b 372 171 476 173 402 216 z m 120 307 b 206 476 135 370 163 431 b 387 479 250 522 359 571 b 313 313 406 415 368 345 b 141 290 261 282 199 284 l 132 291 b 120 307 124 292 119 299 z "},"ë":{"ha":496,"x_min":0,"x_max":0,"o":"m 372 171 b 110 192 306 72 119 35 l 109 211 b 117 215 109 215 114 218 b 141 205 123 210 131 206 b 395 267 230 195 325 206 b 471 494 458 321 490 412 b 164 553 436 643 260 637 b 42 106 54 457 -16 245 b 445 128 117 -77 360 1 b 372 171 476 173 402 216 z m 120 307 b 206 476 135 370 163 431 b 387 479 250 522 359 571 b 313 313 406 415 368 345 b 141 290 261 282 199 284 l 132 291 b 120 307 124 292 119 299 z "},"f":{"ha":186,"x_min":0,"x_max":0,"o":"m 306 897 b 306 982 359 904 360 989 b 128 757 187 966 152 860 b 124 740 127 751 125 746 b 108 727 123 732 116 727 b 35 727 108 727 52 727 b 35 642 -20 727 -20 642 b 85 642 47 642 85 642 b 100 624 95 642 102 633 b 14 37 90 567 30 176 b 99 37 8 -17 93 -17 b 187 623 112 147 171 535 l 187 623 b 209 642 189 634 198 642 b 280 642 209 642 267 642 b 280 727 334 642 335 727 b 220 727 264 727 220 727 b 208 743 212 727 206 735 b 306 897 223 815 250 889 z "},"g":{"ha":535,"x_min":0,"x_max":0,"o":"m 442 557 b 419 556 436 550 425 550 b 146 548 348 638 226 626 b 24 255 70 474 34 358 b 215 -2 12 126 58 -23 b 363 84 274 6 323 39 b 374 79 367 89 375 86 b 368 43 372 67 370 55 b 300 -244 355 -48 349 -164 b 189 -305 275 -286 239 -315 b 104 -180 126 -293 106 -240 b 19 -180 102 -126 17 -126 b 238 -391 23 -300 106 -413 b 431 -100 372 -369 411 -212 b 516 533 469 110 493 322 b 442 557 521 578 465 585 z m 416 407 b 241 95 400 300 343 151 b 111 160 178 61 121 92 b 110 262 106 194 106 228 b 175 449 118 327 139 394 b 372 473 221 520 323 572 b 413 453 381 455 398 449 b 421 445 417 453 422 450 b 416 407 419 433 419 419 z "},"h":{"ha":490,"x_min":0,"x_max":0,"o":"m 419 522 b 209 583 374 593 285 612 b 179 569 198 579 188 574 b 170 575 175 566 170 570 b 215 921 186 690 202 805 b 130 921 222 975 137 975 b 16 53 96 631 50 343 b 101 53 10 -1 95 0 b 139 344 113 150 125 247 b 156 411 142 367 148 389 b 272 511 177 462 213 508 b 370 373 352 516 368 436 b 337 66 372 270 353 167 b 419 44 329 13 411 -10 b 451 278 431 122 444 199 b 419 522 458 358 463 451 z "},"i":{"ha":183,"x_min":0,"x_max":0,"o":"m 92 584 b 15 53 66 407 39 231 b 100 53 8 -1 93 0 b 174 562 97 31 162 478 b 92 584 181 615 100 638 z m 198 836 b 168 849 191 843 179 849 b 138 836 157 848 146 844 b 126 806 130 827 127 818 b 123 787 125 802 124 789 b 127 754 121 775 121 765 b 153 734 133 745 143 737 b 186 739 164 732 176 733 b 205 764 194 744 204 754 b 211 806 207 778 209 792 b 198 836 212 816 205 829 z "},"ì":{"ha":183,"x_min":0,"x_max":0,"o":"m 92 584 b 15 53 66 407 39 231 b 100 53 8 -1 93 0 b 174 562 97 31 162 478 b 92 584 181 615 100 638 z m 198 836 b 168 849 191 843 179 849 b 138 836 157 848 146 844 b 126 806 130 827 127 818 b 123 787 125 802 124 789 b 127 754 121 775 121 765 b 153 734 133 745 143 737 b 186 739 164 732 176 733 b 205 764 194 744 204 754 b 211 806 207 778 209 792 b 198 836 212 816 205 829 z "},"í":{"ha":183,"x_min":0,"x_max":0,"o":"m 92 584 b 15 53 66 407 39 231 b 100 53 8 -1 93 0 b 174 562 97 31 162 478 b 92 584 181 615 100 638 z m 198 836 b 168 849 191 843 179 849 b 138 836 157 848 146 844 b 126 806 130 827 127 818 b 123 787 125 802 124 789 b 127 754 121 775 121 765 b 153 734 133 745 143 737 b 186 739 164 732 176 733 b 205 764 194 744 204 754 b 211 806 207 778 209 792 b 198 836 212 816 205 829 z "},"î":{"ha":183,"x_min":0,"x_max":0,"o":"m 92 584 b 15 53 66 407 39 231 b 100 53 8 -1 93 0 b 174 562 97 31 162 478 b 92 584 181 615 100 638 z m 198 836 b 168 849 191 843 179 849 b 138 836 157 848 146 844 b 126 806 130 827 127 818 b 123 787 125 802 124 789 b 127 754 121 775 121 765 b 153 734 133 745 143 737 b 186 739 164 732 176 733 b 205 764 194 744 204 754 b 211 806 207 778 209 792 b 198 836 212 816 205 829 z "},"ï":{"ha":183,"x_min":0,"x_max":0,"o":"m 92 584 b 15 53 66 407 39 231 b 100 53 8 -1 93 0 b 174 562 97 31 162 478 b 92 584 181 615 100 638 z m 198 836 b 168 849 191 843 179 849 b 138 836 157 848 146 844 b 126 806 130 827 127 818 b 123 787 125 802 124 789 b 127 754 121 775 121 765 b 153 734 133 745 143 737 b 186 739 164 732 176 733 b 205 764 194 744 204 754 b 211 806 207 778 209 792 b 198 836 212 816 205 829 z "},"j":{"ha":186,"x_min":0,"x_max":0,"o":"m 193 836 b 163 849 186 843 174 849 b 133 836 152 848 141 844 b 121 806 125 827 122 818 b 118 787 120 802 119 789 b 122 754 116 775 116 765 b 148 734 128 745 138 737 b 181 739 159 732 171 733 b 200 764 189 744 199 754 b 206 806 202 778 204 792 b 193 836 207 816 200 829 z m 89 573 b 34 166 73 437 54 302 b -10 -96 21 79 8 -9 b -146 -308 -24 -170 -50 -303 b -146 -393 -200 -310 -201 -396 b 108 89 69 -381 84 -69 b 174 573 132 250 154 411 b 89 573 181 627 96 627 z "},"k":{"ha":474,"x_min":0,"x_max":0,"o":"m 411 626 b 176 464 333 572 254 518 b 166 470 172 461 165 464 b 219 878 184 606 203 742 b 134 878 225 933 140 932 b 71 396 115 717 93 557 b 62 384 70 391 67 386 b 50 307 24 366 29 325 b 57 288 56 302 58 295 b 27 53 47 210 37 132 b 112 53 21 -1 106 0 b 146 318 123 142 134 230 b 155 319 146 323 153 324 b 377 16 205 209 272 78 b 420 90 425 -11 467 62 b 224 373 325 146 270 270 b 231 398 220 382 223 393 b 324 463 262 420 293 442 b 454 553 367 493 410 523 b 411 626 498 583 456 657 z "},"l":{"ha":181,"x_min":0,"x_max":0,"o":"m 124 878 b 18 53 91 603 50 329 b 103 53 11 -1 96 0 b 209 878 135 329 176 603 b 124 878 215 933 130 932 z "},"m":{"ha":803,"x_min":0,"x_max":0,"o":"m 736 532 b 521 602 693 608 601 633 b 435 536 486 588 457 564 l 435 536 b 422 536 427 527 422 536 l 422 536 b 210 602 378 609 289 632 b 163 575 193 595 177 586 b 135 572 155 569 144 568 b 81 546 113 582 85 576 b 16 53 59 382 36 218 b 101 53 10 -1 95 0 b 140 351 113 153 126 252 b 274 530 151 427 186 524 b 372 376 360 535 371 441 b 339 66 372 272 354 169 b 421 44 331 13 408 -9 b 474 421 445 143 454 318 b 506 490 478 443 492 474 b 585 530 526 513 552 528 b 683 376 671 535 682 441 b 650 66 684 272 665 169 b 732 44 642 13 724 -10 b 763 273 743 120 756 196 b 736 532 770 356 779 456 z "},"n":{"ha":508,"x_min":0,"x_max":0,"o":"m 436 539 b 221 603 389 610 299 631 b 165 574 200 596 182 586 b 136 571 157 567 146 567 b 81 546 114 582 85 577 b 16 53 59 382 36 218 b 101 53 10 -1 95 0 b 139 349 113 152 126 250 b 268 529 150 424 183 512 b 389 385 361 545 387 459 b 354 66 391 278 371 171 b 436 44 345 13 427 -10 b 468 273 448 120 461 196 b 436 539 477 359 485 463 z "},"ñ":{"ha":508,"x_min":0,"x_max":0,"o":"m 436 539 b 221 603 389 610 299 631 b 165 574 200 596 182 586 b 136 571 157 567 146 567 b 81 546 114 582 85 577 b 16 53 59 382 36 218 b 101 53 10 -1 95 0 b 139 349 113 152 126 250 b 268 529 150 424 183 512 b 389 385 361 545 387 459 b 354 66 391 278 371 171 b 436 44 345 13 427 -10 b 468 273 448 120 461 196 b 436 539 477 359 485 463 z "},"o":{"ha":519,"x_min":0,"x_max":0,"o":"m 479 476 b 224 598 436 582 336 646 b 44 385 135 560 74 477 b 143 22 9 260 11 87 b 434 129 257 -32 375 26 b 479 476 489 224 522 371 z m 410 338 b 261 88 403 249 364 109 b 118 315 120 60 104 209 b 151 420 123 352 133 388 b 262 523 177 466 214 504 b 410 338 376 566 417 425 z "},"ò":{"ha":519,"x_min":0,"x_max":0,"o":"m 479 476 b 224 598 436 582 336 646 b 44 385 135 560 74 477 b 143 22 9 260 11 87 b 434 129 257 -32 375 26 b 479 476 489 224 522 371 z m 410 338 b 261 88 403 249 364 109 b 118 315 120 60 104 209 b 151 420 123 352 133 388 b 262 523 177 466 214 504 b 410 338 376 566 417 425 z "},"ó":{"ha":519,"x_min":0,"x_max":0,"o":"m 479 476 b 224 598 436 582 336 646 b 44 385 135 560 74 477 b 143 22 9 260 11 87 b 434 129 257 -32 375 26 b 479 476 489 224 522 371 z m 410 338 b 261 88 403 249 364 109 b 118 315 120 60 104 209 b 151 420 123 352 133 388 b 262 523 177 466 214 504 b 410 338 376 566 417 425 z "},"ô":{"ha":519,"x_min":0,"x_max":0,"o":"m 479 476 b 224 598 436 582 336 646 b 44 385 135 560 74 477 b 143 22 9 260 11 87 b 434 129 257 -32 375 26 b 479 476 489 224 522 371 z m 410 338 b 261 88 403 249 364 109 b 118 315 120 60 104 209 b 151 420 123 352 133 388 b 262 523 177 466 214 504 b 410 338 376 566 417 425 z "},"õ":{"ha":519,"x_min":0,"x_max":0,"o":"m 479 476 b 224 598 436 582 336 646 b 44 385 135 560 74 477 b 143 22 9 260 11 87 b 434 129 257 -32 375 26 b 479 476 489 224 522 371 z m 410 338 b 261 88 403 249 364 109 b 118 315 120 60 104 209 b 151 420 123 352 133 388 b 262 523 177 466 214 504 b 410 338 376 566 417 425 z "},"ö":{"ha":519,"x_min":0,"x_max":0,"o":"m 479 476 b 224 598 436 582 336 646 b 44 385 135 560 74 477 b 143 22 9 260 11 87 b 434 129 257 -32 375 26 b 479 476 489 224 522 371 z m 410 338 b 261 88 403 249 364 109 b 118 315 120 60 104 209 b 151 420 123 352 133 388 b 262 523 177 466 214 504 b 410 338 376 566 417 425 z "},"ø":{"ha":519,"x_min":0,"x_max":0,"o":"m 479 476 b 224 598 436 582 336 646 b 44 385 135 560 74 477 b 143 22 9 260 11 87 b 434 129 257 -32 375 26 b 479 476 489 224 522 371 z m 410 338 b 261 88 403 249 364 109 b 118 315 120 60 104 209 b 151 420 123 352 133 388 b 262 523 177 466 214 504 b 410 338 376 566 417 425 z "},"p":{"ha":531,"x_min":0,"x_max":0,"o":"m 382 596 b 167 560 306 638 229 611 b 140 556 159 554 149 553 b 79 517 116 563 83 550 b -35 -350 76 492 -7 -110 b 50 -350 -42 -404 44 -404 b 106 76 67 -208 86 -66 b 118 80 107 83 115 85 b 200 15 138 52 165 29 b 493 228 357 -52 463 88 b 382 596 520 349 505 530 z m 411 251 b 212 105 392 161 319 24 b 145 367 137 161 140 281 b 145 368 145 368 145 368 b 185 461 150 402 163 434 b 345 520 227 510 286 553 b 411 251 427 473 428 330 z "},"q":{"ha":535,"x_min":0,"x_max":0,"o":"m 443 541 b 431 542 440 537 434 538 b 147 548 363 639 231 630 b 25 255 71 474 35 358 b 216 -2 13 126 59 -23 b 366 87 276 6 326 40 b 376 82 370 92 377 88 b 321 -350 357 -62 338 -206 b 406 -350 315 -404 400 -404 b 518 517 440 -61 483 228 b 443 541 523 562 467 569 z m 423 443 b 417 407 421 428 418 409 b 242 95 395 301 344 151 b 112 160 179 61 122 92 b 111 262 107 194 107 228 b 176 449 119 327 140 394 b 373 473 222 520 324 572 b 413 452 382 455 398 450 b 423 443 419 453 424 449 z "},"r":{"ha":367,"x_min":0,"x_max":0,"o":"m 376 584 b 179 586 318 627 239 624 b 156 569 171 581 163 575 b 142 568 152 566 147 565 b 81 546 120 583 86 579 b 16 53 59 382 36 218 b 101 53 10 -1 95 0 b 138 341 113 149 125 246 b 165 434 143 373 152 405 b 333 510 198 504 258 566 b 376 584 377 477 420 551 z "},"s":{"ha":439,"x_min":0,"x_max":0,"o":"m 191 418 b 160 511 172 442 135 481 b 323 479 197 556 307 534 b 405 502 339 427 421 449 b 150 603 374 607 245 639 b 95 406 61 570 48 479 b 287 189 148 325 223 260 b 253 88 341 142 313 97 b 80 170 185 78 112 98 b 7 127 57 220 -16 176 b 275 6 54 21 166 -20 b 377 213 374 30 444 117 b 191 418 325 288 248 346 z "},"t":{"ha":219,"x_min":0,"x_max":0,"o":"m 264 727 b 200 727 249 727 207 727 b 186 743 192 727 185 735 b 209 924 194 803 202 863 b 124 924 216 978 131 977 b 101 739 117 862 109 801 b 87 727 100 732 94 727 b 20 727 75 727 31 727 b 20 642 -35 727 -35 642 b 72 642 30 642 64 642 b 86 626 80 642 87 634 b 48 343 73 531 60 437 b 119 3 34 239 -8 58 b 162 77 169 -18 213 55 b 116 210 113 98 111 163 b 171 630 123 288 163 568 b 185 642 172 637 178 642 b 265 642 200 642 253 642 b 265 727 319 642 319 727 z "},"u":{"ha":486,"x_min":0,"x_max":0,"o":"m 385 534 b 349 252 374 440 361 346 b 310 150 344 214 331 180 b 185 82 281 108 238 76 b 118 241 106 90 112 182 b 155 521 126 335 141 428 b 73 544 164 575 82 598 b 44 333 63 474 53 404 b 45 96 34 257 16 170 b 250 4 76 14 167 -19 b 315 35 274 10 295 21 b 331 33 320 39 327 38 b 405 42 350 5 399 1 b 470 534 412 97 457 427 b 385 534 476 589 391 588 z "},"ù":{"ha":486,"x_min":0,"x_max":0,"o":"m 385 534 b 349 252 374 440 361 346 b 310 150 344 214 331 180 b 185 82 281 108 238 76 b 118 241 106 90 112 182 b 155 521 126 335 141 428 b 73 544 164 575 82 598 b 44 333 63 474 53 404 b 45 96 34 257 16 170 b 250 4 76 14 167 -19 b 315 35 274 10 295 21 b 331 33 320 39 327 38 b 405 42 350 5 399 1 b 470 534 412 97 457 427 b 385 534 476 589 391 588 z "},"ú":{"ha":486,"x_min":0,"x_max":0,"o":"m 385 534 b 349 252 374 440 361 346 b 310 150 344 214 331 180 b 185 82 281 108 238 76 b 118 241 106 90 112 182 b 155 521 126 335 141 428 b 73 544 164 575 82 598 b 44 333 63 474 53 404 b 45 96 34 257 16 170 b 250 4 76 14 167 -19 b 315 35 274 10 295 21 b 331 33 320 39 327 38 b 405 42 350 5 399 1 b 470 534 412 97 457 427 b 385 534 476 589 391 588 z "},"û":{"ha":486,"x_min":0,"x_max":0,"o":"m 385 534 b 349 252 374 440 361 346 b 310 150 344 214 331 180 b 185 82 281 108 238 76 b 118 241 106 90 112 182 b 155 521 126 335 141 428 b 73 544 164 575 82 598 b 44 333 63 474 53 404 b 45 96 34 257 16 170 b 250 4 76 14 167 -19 b 315 35 274 10 295 21 b 331 33 320 39 327 38 b 405 42 350 5 399 1 b 470 534 412 97 457 427 b 385 534 476 589 391 588 z "},"ü":{"ha":486,"x_min":0,"x_max":0,"o":"m 385 534 b 349 252 374 440 361 346 b 310 150 344 214 331 180 b 185 82 281 108 238 76 b 118 241 106 90 112 182 b 155 521 126 335 141 428 b 73 544 164 575 82 598 b 44 333 63 474 53 404 b 45 96 34 257 16 170 b 250 4 76 14 167 -19 b 315 35 274 10 295 21 b 331 33 320 39 327 38 b 405 42 350 5 399 1 b 470 534 412 97 457 427 b 385 534 476 589 391 588 z "},"v":{"ha":443,"x_min":0,"x_max":0,"o":"m 381 552 b 221 204 328 436 275 320 b 206 205 218 197 208 198 b 117 544 176 318 147 431 b 35 521 103 597 21 575 b 108 243 59 429 84 336 b 161 42 126 176 143 109 b 243 41 173 -2 231 6 b 253 71 246 51 248 60 b 455 509 285 140 395 379 b 381 552 477 558 404 601 z "},"w":{"ha":686,"x_min":0,"x_max":0,"o":"m 602 546 b 526 205 582 432 564 314 b 451 84 514 170 489 99 b 389 128 417 70 397 98 b 408 373 365 210 401 293 b 325 385 408 418 337 434 b 253 176 306 314 289 241 b 185 91 238 149 214 105 b 124 142 148 74 132 111 b 124 321 108 198 118 263 b 162 522 131 376 146 456 b 81 544 176 575 94 598 b 33 259 57 451 40 355 b 97 25 27 180 30 80 b 289 77 167 -32 242 18 b 301 94 292 82 297 88 b 311 94 301 94 307 104 b 314 84 312 90 313 87 b 499 14 343 8 427 -31 b 642 304 591 71 619 207 b 684 523 658 376 671 450 b 602 546 692 577 611 600 z "},"x":{"ha":465,"x_min":0,"x_max":0,"o":"m 464 505 b 404 565 499 546 439 607 b 257 391 355 507 306 449 b 230 393 250 382 236 383 b 135 556 198 448 167 502 b 62 513 108 603 34 561 b 177 315 100 447 139 381 b 175 294 181 309 180 300 b 0 87 117 225 58 156 b 60 27 -35 45 25 -15 b 214 208 111 87 162 148 b 241 206 221 217 235 216 b 343 30 275 147 309 89 b 416 73 370 -17 444 26 b 294 284 375 143 335 214 b 295 305 290 291 290 299 b 464 505 352 372 408 438 z "},"y":{"ha":489,"x_min":0,"x_max":0,"o":"m 387 534 b 346 224 373 431 362 316 b 186 82 335 155 268 73 b 119 241 107 90 113 182 b 156 521 127 335 142 428 b 75 544 165 575 83 598 b 45 333 64 474 54 403 b 46 96 35 257 17 170 b 251 4 77 14 168 -19 b 303 26 269 9 287 17 b 320 15 311 31 322 25 b 256 -243 309 -71 300 -172 b 145 -305 231 -285 195 -315 b 60 -180 82 -292 62 -239 b -25 -180 58 -125 -27 -125 b 194 -391 -21 -300 61 -413 b 387 -99 328 -368 367 -212 b 472 534 425 110 448 323 b 387 534 478 588 393 588 z "},"ý":{"ha":489,"x_min":0,"x_max":0,"o":"m 387 534 b 346 224 373 431 362 316 b 186 82 335 155 268 73 b 119 241 107 90 113 182 b 156 521 127 335 142 428 b 75 544 165 575 83 598 b 45 333 64 474 54 403 b 46 96 35 257 17 170 b 251 4 77 14 168 -19 b 303 26 269 9 287 17 b 320 15 311 31 322 25 b 256 -243 309 -71 300 -172 b 145 -305 231 -285 195 -315 b 60 -180 82 -292 62 -239 b -25 -180 58 -125 -27 -125 b 194 -391 -21 -300 61 -413 b 387 -99 328 -368 367 -212 b 472 534 425 110 448 323 b 387 534 478 588 393 588 z "},"ÿ":{"ha":489,"x_min":0,"x_max":0,"o":"m 387 534 b 346 224 373 431 362 316 b 186 82 335 155 268 73 b 119 241 107 90 113 182 b 156 521 127 335 142 428 b 75 544 165 575 83 598 b 45 333 64 474 54 403 b 46 96 35 257 17 170 b 251 4 77 14 168 -19 b 303 26 269 9 287 17 b 320 15 311 31 322 25 b 256 -243 309 -71 300 -172 b 145 -305 231 -285 195 -315 b 60 -180 82 -292 62 -239 b -25 -180 58 -125 -27 -125 b 194 -391 -21 -300 61 -413 b 387 -99 328 -368 367 -212 b 472 534 425 110 448 323 b 387 534 478 588 393 588 z "},"z":{"ha":464,"x_min":0,"x_max":0,"o":"m 466 495 b 436 567 490 522 474 567 b 90 571 373 568 142 570 b 90 486 35 571 35 486 b 317 484 165 485 241 484 b 326 464 327 484 332 472 b 0 84 217 338 112 207 b 30 11 -24 57 -8 11 b 364 14 86 12 308 13 b 364 99 418 14 419 99 b 152 97 293 98 223 98 b 143 117 142 97 136 109 b 466 495 251 243 354 372 z "},"{":{"ha":557,"x_min":0,"x_max":0,"o":"m 412 1008 b 230 729 324 938 271 832 b 180 572 206 668 201 618 b 83 511 157 544 108 542 b 90 431 62 484 67 455 b 145 391 105 414 131 407 b 167 289 166 367 162 319 b 267 -36 181 178 201 57 b 341 7 299 -80 373 -37 b 249 306 280 92 263 205 b 213 447 243 352 249 411 b 190 465 207 453 199 459 b 191 480 185 469 185 477 b 256 528 210 490 244 510 b 299 670 279 567 284 628 b 472 948 335 772 386 879 b 412 1008 515 982 455 1042 z "},"|":{"ha":221,"x_min":0,"x_max":0,"o":"m 136 976 b -2 -15 97 645 37 316 b 83 -15 -8 -69 77 -69 b 221 976 122 316 182 645 b 136 976 227 1030 142 1030 z "},"}":{"ha":557,"x_min":0,"x_max":0,"o":"m 467 533 b 412 573 452 549 426 557 b 390 675 390 597 394 644 b 289 999 375 785 355 907 b 216 957 258 1044 184 1001 b 307 658 276 872 294 759 b 344 517 313 611 307 553 b 366 498 350 511 358 504 b 365 483 372 495 371 486 b 301 436 346 473 312 454 b 257 293 277 397 273 336 b 84 16 221 191 171 84 b 144 -44 41 -18 102 -78 b 326 235 232 26 285 132 b 376 392 350 296 355 346 b 473 453 400 420 449 422 b 467 533 495 480 490 509 z "},"~":{"ha":486,"x_min":0,"x_max":0,"o":"m 378 499 b 355 442 373 481 368 456 b 272 463 325 410 296 438 b 163 536 241 495 209 529 b 21 394 77 549 34 466 b 103 371 11 341 93 318 b 119 430 106 390 109 414 b 200 416 145 468 177 439 b 308 341 231 384 262 349 b 460 477 394 325 441 406 b 378 499 474 529 392 552 z "}," ":{"ha":335,"x_min":0,"x_max":0,"o":""},"­":{"ha":0,"x_min":0,"x_max":0,"o":""},"‘":{"ha":222,"x_min":0,"x_max":0,"o":"m 186 822 b 178 841 178 825 174 834 b 195 869 183 851 188 861 b 135 930 233 909 173 969 b 96 866 118 912 106 889 b 91 766 83 836 65 794 b 169 741 111 746 141 741 b 211 783 191 740 212 760 b 186 822 211 800 201 815 z "},"’":{"ha":221,"x_min":0,"x_max":0,"o":"m 208 917 b 129 942 187 936 157 942 b 87 900 107 942 86 923 b 113 861 88 883 98 868 b 120 841 120 858 124 849 b 103 813 115 831 110 822 b 163 753 65 774 125 714 b 202 817 180 771 192 794 b 208 917 215 847 233 889 z "},"‚":{"ha":200,"x_min":0,"x_max":0,"o":"m 109 95 b 31 121 88 115 58 121 b -12 78 9 121 -13 101 b 14 39 -11 61 -1 46 b 22 20 22 36 25 27 b 4 -8 17 10 11 0 b 65 -68 -34 -47 26 -108 b 104 -5 82 -50 94 -27 b 109 95 117 26 134 67 z "},"“":{"ha":325,"x_min":0,"x_max":0,"o":"m 311 822 b 303 841 303 825 299 834 b 320 869 308 851 313 861 b 260 930 358 909 298 969 b 221 866 243 912 231 889 b 216 766 208 836 190 794 b 294 741 236 746 266 741 b 336 783 316 740 337 760 b 311 822 336 800 326 815 z m 165 822 b 157 841 157 825 153 834 b 174 869 162 851 167 861 b 114 930 212 909 152 969 b 75 866 97 912 85 889 b 70 766 62 836 44 794 b 148 741 90 746 120 741 b 190 783 170 740 191 760 b 165 822 190 800 180 815 z "},"”":{"ha":325,"x_min":0,"x_max":0,"o":"m 114 942 b 72 900 92 942 71 923 b 97 861 72 883 82 868 b 105 841 105 858 109 849 b 88 813 100 831 95 822 b 148 753 50 774 110 714 b 187 817 165 771 177 794 b 192 917 200 847 218 889 b 114 942 172 936 142 942 z m 338 917 b 260 942 318 936 288 942 b 218 900 238 942 217 923 b 243 861 218 883 228 868 b 251 841 251 858 255 849 b 234 813 246 831 241 822 b 294 753 196 774 256 714 b 333 817 311 771 323 794 b 338 917 346 847 364 889 z "},"„":{"ha":346,"x_min":0,"x_max":0,"o":"m 31 121 b -12 78 9 121 -13 101 b 14 39 -11 61 -1 46 b 22 20 22 36 25 27 b 4 -8 17 10 11 0 b 65 -68 -34 -47 26 -108 b 104 -5 82 -50 94 -27 b 109 95 117 26 134 67 b 31 121 88 115 58 121 z m 255 95 b 177 121 234 115 204 121 b 134 78 155 121 133 101 b 160 39 135 61 145 46 b 168 20 168 36 171 27 b 150 -8 163 10 157 0 b 210 -68 112 -47 172 -108 b 250 -5 228 -50 240 -27 b 255 95 263 26 280 67 z "}}}
